<svg xmlns="http://www.w3.org/2000/svg" width="47" height="40" fill="none" viewBox="0 0 47 40">
    <path fill="#fff" d="M30.741 33.31h-15.31L7.569 20h7.793L8.052 7.31c-.207-.276-.621-.276-.759 0L.052 19.724c-.07.138-.07.345 0 .483L11.43 39.793c.069.138.207.207.414.207H34.19c.345 0 .551-.345.413-.69l-3.379-5.793c-.138-.069-.276-.207-.483-.207z"/>
    <path fill="#fff" d="M26.81 13.31h-7.172c-.207 0-.414.138-.483.276L15.431 20l3.724 6.414c.138.207.276.276.483.276h7.172c.207 0 .414-.138.483-.276L31.017 20l-3.724-6.345c-.138-.207-.276-.345-.483-.345z"/>
    <path fill="#fff" d="M34.672 0H12.328c-.345 0-.552.345-.414.69l3.38 5.724c.068.138.206.207.413.207h15.31L38.81 20h-7.793l7.448 12.69c.207.276.621.276.76 0l7.31-12.414c.069-.138.069-.345 0-.483L35.086.207C34.948.069 34.81 0 34.672 0z"/>
</svg>
